<?xml version="1.0" encoding="UTF-8" standalone="no"?><svg width="77px" height="77px" viewBox="0 0 77 77" version="1.1" xmlns="http://www.w3.org/2000/svg" xmlns:xlink="http://www.w3.org/1999/xlink">        <title>Group</title>    <desc>Created with Sketch.</desc>    <defs></defs>    <g id="Page-1" stroke="none" stroke-width="1" fill="none" fill-rule="evenodd">        <g id="Group">            <circle id="Oval" fill="#FECB3C" cx="38.883" cy="38.027" r="38"></circle>            <g transform="translate(19.000000, 14.000000)" id="Shape" fill="#000000">                <path d="M27.776,30.301 C27.544,30.214 27.284,30.333 27.197,30.566 C27.11,30.799 27.228,31.058 27.461,31.145 C27.565,31.184 37.579,34.975 38.156,39.992 L1.61,39.992 C2.196,35.07 12.19,31.555 12.294,31.519 C12.529,31.438 12.653,31.182 12.572,30.947 C12.49,30.713 12.234,30.588 12,30.669 C11.538,30.829 0.683,34.648 0.683,40.442 C0.683,40.69 0.885,40.892 1.133,40.892 L38.633,40.892 C38.882,40.892 39.083,40.69 39.083,40.442 C39.083,34.581 28.238,30.473 27.776,30.301 L27.776,30.301 Z"></path>                <path d="M10.321,22.379 C10.567,22.351 10.743,22.129 10.716,21.882 C10.689,21.637 10.467,21.456 10.22,21.485 C10.104,21.499 7.379,21.75 6.731,18.512 C6.054,15.129 6.788,14.294 8.004,12.909 L8.109,12.789 C8.182,12.706 8.221,12.599 8.221,12.488 C8.221,12.443 8.22,8.024 11.296,4.923 C13.328,2.874 16.245,1.835 19.965,1.835 C23.685,1.835 26.602,2.874 28.635,4.924 C31.711,8.025 31.711,12.444 31.711,12.488 C31.711,12.598 31.75,12.706 31.823,12.789 L31.929,12.909 C33.144,14.294 33.877,15.13 33.2,18.512 C32.553,21.749 29.827,21.499 29.711,21.485 C29.688,21.482 29.668,21.49 29.645,21.491 C29.617,21.492 29.59,21.491 29.563,21.498 C29.528,21.506 29.498,21.519 29.467,21.535 C29.446,21.545 29.426,21.554 29.407,21.566 C29.378,21.587 29.355,21.612 29.331,21.638 C29.319,21.652 29.303,21.659 29.292,21.675 C28.871,22.279 28.391,22.777 27.886,23.203 C27.973,22.446 28.04,21.761 28.076,21.36 C28.659,20.975 30.213,19.74 30.213,17.519 C30.213,15.764 29.362,14.707 28.993,14.331 C28.928,8.305 25.81,5.121 19.968,5.121 C12.108,5.121 10.812,10.8 10.767,14.331 C10.398,14.706 9.546,15.764 9.546,17.519 C9.546,19.74 11.101,20.975 11.685,21.361 C11.792,22.53 12.15,26.132 12.555,26.861 C12.681,27.088 13.055,27.45 13.575,27.866 L13.575,32.42 C13.575,33.272 14.042,34.05 14.793,34.451 L18.795,36.591 C19.135,36.772 19.508,36.862 19.881,36.862 C20.254,36.862 20.627,36.771 20.966,36.59 L24.967,34.451 C25.718,34.051 26.186,33.271 26.186,32.42 L26.186,27.876 C26.715,27.441 27.089,27.071 27.206,26.861 C27.397,26.518 27.577,25.538 27.726,24.476 C28.494,23.946 29.232,23.26 29.877,22.388 C30.732,22.386 33.4,22.102 34.083,18.687 C34.846,14.874 33.859,13.745 32.609,12.32 C32.584,11.416 32.298,7.343 29.282,4.297 C27.074,2.067 23.939,0.935 19.965,0.935 C15.992,0.935 12.858,2.067 10.65,4.297 C7.634,7.344 7.349,11.416 7.323,12.32 C6.072,13.745 5.085,14.874 5.848,18.687 C6.662,22.75 10.286,22.379 10.321,22.379 L10.321,22.379 Z M19.971,6.022 C25.134,6.022 27.853,8.653 28.075,13.831 C25.793,12.787 23.742,10.89 23.719,10.869 C23.542,10.703 23.265,10.707 23.093,10.879 C20.611,13.36 13.568,13.941 11.681,14.053 C11.798,10.28 13.386,6.022 19.971,6.022 L19.971,6.022 Z M25.287,32.42 C25.287,32.939 25.003,33.413 24.545,33.658 L20.544,35.797 C20.129,36.018 19.635,36.018 19.221,35.797 L15.22,33.658 C14.762,33.413 14.478,32.938 14.478,32.42 L14.478,28.537 C16.177,29.724 18.572,31.02 19.972,31.02 C21.398,31.02 23.663,29.738 25.287,28.566 L25.287,32.42 L25.287,32.42 Z M26.421,26.424 C26.339,26.571 26.035,26.858 25.602,27.204 C25.501,27.236 25.419,27.303 25.363,27.391 C23.899,28.517 21.313,30.12 19.971,30.12 C18.571,30.12 15.837,28.437 14.35,27.317 C14.331,27.296 14.307,27.284 14.285,27.268 C13.776,26.88 13.424,26.566 13.344,26.423 C13.115,26.011 12.767,23.37 12.563,21.055 C12.55,20.905 12.461,20.771 12.328,20.699 C12.309,20.689 10.449,19.663 10.449,17.519 C10.449,16.061 11.148,15.228 11.405,14.97 C12.673,14.912 20.269,14.464 23.414,11.804 C24.165,12.46 26.162,14.088 28.303,14.911 C28.486,15.08 29.316,15.929 29.316,17.518 C29.316,19.646 27.513,20.657 27.437,20.699 C27.305,20.771 27.216,20.905 27.203,21.055 C27.118,22.022 27.007,23.037 26.891,23.931 C25.012,25.096 23.018,25.363 22.156,25.423 L22.156,24.66 C22.156,24.412 21.954,24.21 21.706,24.21 L19.484,24.21 C18.556,24.21 17.8,24.966 17.8,25.895 C17.8,26.824 18.555,27.58 19.484,27.58 L21.706,27.58 C21.955,27.58 22.156,27.378 22.156,27.13 L22.156,26.333 C22.995,26.287 24.848,26.063 26.728,25.076 C26.618,25.761 26.51,26.264 26.421,26.424 L26.421,26.424 Z M21.255,25.886 L21.255,25.888 L21.255,25.891 L21.255,26.681 L19.484,26.681 C19.052,26.681 18.701,26.329 18.701,25.897 C18.701,25.465 19.052,25.113 19.484,25.113 L21.255,25.113 L21.255,25.886 L21.255,25.886 Z"></path>            </g>        </g>    </g></svg>