<?xml version="1.0" encoding="UTF-8" standalone="no"?><svg width="77px" height="77px" viewBox="0 0 77 77" version="1.1" xmlns="http://www.w3.org/2000/svg" xmlns:xlink="http://www.w3.org/1999/xlink">        <title>Group</title>    <desc>Created with Sketch.</desc>    <defs></defs>    <g id="Page-1" stroke="none" stroke-width="1" fill="none" fill-rule="evenodd">        <g id="Group">            <circle id="Oval" fill="#FECB3C" cx="38.64" cy="38.904" r="38"></circle>            <g transform="translate(18.000000, 12.000000)" id="Shape" fill="#000000">                <path d="M20.568,11.589 C11.229,11.589 3.63,19.188 3.63,28.527 C3.63,37.866 11.228,45.465 20.568,45.465 C29.908,45.465 37.506,37.867 37.506,28.527 C37.506,19.187 29.907,11.589 20.568,11.589 L20.568,11.589 Z M20.568,44.564 C11.725,44.564 4.531,37.37 4.531,28.527 C4.531,19.684 11.725,12.489 20.568,12.489 C29.411,12.489 36.606,19.683 36.606,28.527 C36.605,37.37 29.411,44.564 20.568,44.564 L20.568,44.564 Z"></path>                <path d="M36.475,13.767 L36.923,14.215 C37.309,14.601 37.823,14.814 38.37,14.814 C38.917,14.814 39.43,14.601 39.817,14.215 C40.203,13.828 40.416,13.315 40.416,12.769 C40.416,12.223 40.203,11.709 39.817,11.322 L38.461,9.967 C37.688,9.195 36.341,9.195 35.567,9.967 C34.77,10.764 34.77,12.062 35.567,12.86 L35.838,13.131 L34.428,14.542 C31.517,11.658 27.71,9.693 23.471,9.063 L23.471,7.276 L24.246,7.276 C26.076,7.276 27.565,5.75 27.565,3.874 C27.565,1.998 26.076,0.472 24.246,0.472 L16.89,0.472 C15.06,0.472 13.571,1.998 13.571,3.874 C13.571,5.75 15.06,7.276 16.89,7.276 L17.665,7.276 L17.665,9.063 C8.176,10.474 0.865,18.653 0.865,28.528 C0.865,39.392 9.704,48.231 20.568,48.231 C31.432,48.231 40.272,39.392 40.272,28.528 C40.272,23.387 38.277,18.715 35.041,15.203 L36.475,13.767 L36.475,13.767 Z M36.204,10.603 C36.42,10.386 36.708,10.267 37.014,10.267 C37.32,10.267 37.608,10.386 37.824,10.603 L39.18,11.958 C39.396,12.174 39.515,12.462 39.515,12.768 C39.515,13.074 39.396,13.361 39.18,13.578 C38.747,14.011 37.992,14.011 37.559,13.578 L36.204,12.223 C35.757,11.775 35.757,11.049 36.204,10.603 L36.204,10.603 Z M14.471,3.873 C14.471,2.494 15.556,1.372 16.89,1.372 L24.246,1.372 C25.579,1.372 26.664,2.494 26.664,3.873 C26.664,5.252 25.579,6.374 24.246,6.374 L16.89,6.374 C15.556,6.374 14.471,5.252 14.471,3.873 L14.471,3.873 Z M18.365,7.274 L22.771,7.274 L22.771,8.954 C22.047,8.873 21.313,8.823 20.568,8.823 C19.823,8.823 19.089,8.873 18.365,8.954 L18.365,7.274 L18.365,7.274 Z M20.568,47.329 C10.2,47.329 1.766,38.894 1.766,28.527 C1.766,18.159 10.201,9.724 20.568,9.724 C30.936,9.724 39.371,18.159 39.371,28.527 C39.371,38.895 30.936,47.329 20.568,47.329 L20.568,47.329 Z"></path>                <path d="M31.139,28.077 L22.503,28.077 C22.332,27.342 21.753,26.764 21.018,26.592 L21.018,15.44 C21.018,15.191 20.816,14.99 20.568,14.99 C20.32,14.99 20.118,15.192 20.118,15.44 L20.118,26.591 C19.238,26.796 18.577,27.584 18.577,28.526 C18.577,29.623 19.47,30.516 20.568,30.516 C21.51,30.516 22.297,29.856 22.503,28.976 L31.139,28.976 C31.388,28.976 31.589,28.774 31.589,28.526 C31.589,28.278 31.387,28.077 31.139,28.077 L31.139,28.077 Z M20.568,29.617 C19.966,29.617 19.478,29.128 19.478,28.527 C19.478,28.013 19.842,27.601 20.321,27.486 C20.393,27.535 20.475,27.57 20.568,27.57 C20.661,27.57 20.743,27.535 20.815,27.486 C21.294,27.601 21.658,28.013 21.658,28.527 C21.658,29.128 21.169,29.617 20.568,29.617 L20.568,29.617 Z"></path>            </g>        </g>    </g></svg>