<?xml version="1.0" encoding="UTF-8" standalone="no"?><svg width="77px" height="77px" viewBox="0 0 77 77" version="1.1" xmlns="http://www.w3.org/2000/svg" xmlns:xlink="http://www.w3.org/1999/xlink">        <title>Group</title>    <desc>Created with Sketch.</desc>    <defs></defs>    <g id="Page-1" stroke="none" stroke-width="1" fill="none" fill-rule="evenodd">        <g id="Group">            <circle id="Oval" fill="#FECB3C" cx="38.515" cy="38.466" r="38"></circle>            <g transform="translate(17.000000, 17.000000)" id="Shape" fill="#000000">                <path d="M21.515,0.182 C9.779,0.182 0.231,9.73 0.231,21.466 C0.231,33.202 9.779,42.75 21.515,42.75 C33.251,42.75 42.799,33.202 42.799,21.466 C42.799,9.73 33.251,0.182 21.515,0.182 L21.515,0.182 Z M38.272,9.89 C37.374,9.795 35.954,9.67 35.089,9.727 C34.226,9.785 33.561,10.33 32.975,10.811 C32.579,11.135 32.206,11.442 31.857,11.529 C31.838,11.533 31.796,11.545 31.701,11.47 C31.145,11.035 30.713,9.33 30.713,8.983 C30.713,8.191 28.286,5.433 27.072,5.06 C26.07,4.749 24.007,4.55 23.555,5.459 C23.452,5.664 23.455,5.904 23.561,6.136 C23.893,6.857 25.311,7.591 26.489,7.885 C27.059,8.028 27.283,8.348 27.371,8.591 C27.466,8.855 27.412,9.057 27.387,9.091 C27.059,9.42 26.595,10.341 26.839,11.006 C26.919,11.224 27.144,11.596 27.753,11.646 C28.371,11.699 28.947,12.848 29.039,13.261 C28.861,13.358 28.444,13.469 28.206,13.533 C28.031,13.579 27.867,13.624 27.733,13.668 C27.171,13.857 27.083,14.54 26.997,15.2 C26.954,15.534 26.904,15.913 26.805,16.088 C26.451,16.708 23.436,20.067 22.663,20.417 C22.279,20.592 21.589,20.656 20.979,20.713 C20.129,20.793 19.457,20.856 19.123,21.191 C18.933,21.381 18.861,21.649 18.926,21.925 C19.092,22.627 20.178,23.422 21.088,23.725 C21.655,23.914 22.013,24.427 22.15,25.246 C22.205,25.577 22.148,25.793 22.117,25.835 C21.957,25.777 21.586,25.272 21.386,24.999 C21.139,24.662 20.906,24.344 20.666,24.145 C20.226,23.779 19.146,23.623 17.298,23.624 C16.673,23.394 13.411,19.781 12.934,18.906 C12.795,18.651 12.73,17.844 12.667,17.064 C12.531,15.373 12.362,13.266 11.292,12.384 C9.739,11.108 8.506,11.736 6.944,12.53 L6.5,12.755 C5.511,13.25 5.033,13.317 4.853,13.3 C4.657,12.851 4.165,11.531 4.534,10.304 L4.487,10.29 C4.994,9.52 5.556,8.794 6.159,8.102 C6.902,8.184 8.672,8.362 10.221,8.362 C11.12,8.362 11.94,8.301 12.432,8.128 C13.171,7.867 13.759,7.343 14.277,6.881 C14.843,6.375 15.333,5.939 15.86,5.939 C16.282,5.939 16.702,6.013 17.109,6.085 C17.894,6.224 18.707,6.369 19.543,5.982 C20.434,5.57 20.6,4.725 20.746,3.98 C20.873,3.328 20.984,2.763 21.524,2.477 C22.869,1.766 25.574,1.593 25.602,1.591 L25.596,1.492 C30.83,2.562 35.332,5.646 38.272,9.89 L38.272,9.89 Z M21.515,1.082 C21.891,1.082 22.259,1.118 22.631,1.139 C22.079,1.277 21.539,1.454 21.105,1.684 C20.185,2.171 20.007,3.08 19.864,3.809 C19.726,4.515 19.618,4.958 19.167,5.167 C18.588,5.434 17.976,5.326 17.268,5.199 C16.823,5.121 16.364,5.039 15.862,5.039 C14.991,5.039 14.324,5.635 13.679,6.21 C13.2,6.637 12.706,7.079 12.134,7.28 C11.232,7.599 8.589,7.435 6.911,7.276 C10.617,3.463 15.79,1.082 21.515,1.082 L21.515,1.082 Z M1.132,21.466 C1.132,17.995 2.008,14.728 3.544,11.864 C3.674,12.971 4.103,13.826 4.131,13.879 L4.211,13.988 C4.44,14.215 5.094,14.467 6.903,13.56 L7.353,13.332 C8.968,12.509 9.667,12.212 10.72,13.079 C11.496,13.718 11.655,15.693 11.771,17.136 C11.851,18.129 11.914,18.913 12.145,19.336 C12.478,19.947 16.232,24.514 17.227,24.514 C19.586,24.514 20.027,24.782 20.091,24.835 C20.245,24.963 20.457,25.252 20.661,25.53 C21.113,26.146 21.54,26.729 22.083,26.729 C22.174,26.729 22.253,26.699 22.335,26.677 C22.225,26.831 22.108,26.958 21.987,27.087 C21.633,27.464 21.267,27.855 21.207,28.807 C21.146,29.779 22.216,30.951 23.161,31.984 C23.55,32.409 23.917,32.811 24.09,33.083 C24.382,33.542 24.053,34.612 23.788,35.472 C23.633,35.975 23.487,36.45 23.427,36.868 L23.34,37.429 C23.041,39.297 22.836,40.928 23.209,41.764 C22.649,41.811 22.087,41.85 21.516,41.85 C10.276,41.85 1.132,32.706 1.132,21.466 L1.132,21.466 Z M24.115,41.469 L24.057,41.467 C23.796,41.224 23.854,39.913 24.228,37.571 L24.317,36.995 C24.367,36.647 24.503,36.205 24.647,35.737 C25,34.593 25.364,33.411 24.848,32.6 C24.634,32.262 24.259,31.852 23.825,31.377 C23.125,30.611 22.068,29.455 22.105,28.864 C22.145,28.234 22.332,28.035 22.643,27.704 C22.889,27.442 23.194,27.117 23.435,26.536 C23.474,26.443 23.511,26.343 23.549,26.238 C23.8,25.553 24.037,24.907 25.353,24.907 C25.511,24.907 25.683,24.917 25.869,24.936 C27.824,25.147 28.483,25.858 28.919,26.33 L29.092,26.513 C29.309,26.73 29.489,26.954 29.662,27.168 C30.107,27.719 30.567,28.289 31.431,28.505 C31.776,28.591 32.183,28.616 32.614,28.644 C33.391,28.692 34.272,28.747 34.385,29.183 C34.706,30.419 33.225,32.463 30.322,34.79 C29.513,35.436 28.426,36.958 27.708,37.965 C27.471,38.296 27.203,38.671 27.132,38.743 C27.033,38.843 26.879,39.021 26.688,39.245 C26.168,39.854 24.788,41.469 24.115,41.469 L24.115,41.469 Z M25.964,41.346 C26.434,40.906 26.908,40.374 27.372,39.83 C27.543,39.63 27.68,39.469 27.768,39.38 C27.884,39.265 28.068,39.009 28.439,38.488 C29.087,37.581 30.172,36.062 30.884,35.494 C33.176,33.657 35.794,31.032 35.256,28.957 C34.979,27.89 33.698,27.81 32.67,27.746 C32.282,27.722 31.915,27.699 31.65,27.633 C31.079,27.49 30.763,27.099 30.363,26.604 C30.171,26.367 29.969,26.119 29.729,25.877 L29.579,25.719 C29.083,25.185 28.254,24.289 25.965,24.043 C24.173,23.856 23.432,24.498 23.046,25.166 C23.043,25.145 23.042,25.117 23.038,25.098 C22.793,23.636 21.998,23.08 21.373,22.871 C20.648,22.63 19.979,22.065 19.831,21.792 C20.068,21.702 20.657,21.647 21.063,21.609 C21.776,21.542 22.514,21.473 23.035,21.236 C24.097,20.755 27.241,17.138 27.587,16.534 C27.775,16.205 27.834,15.753 27.89,15.316 C27.925,15.045 27.984,14.591 28.019,14.521 C28.137,14.482 28.283,14.444 28.438,14.402 C29.141,14.214 29.804,14.037 29.932,13.522 C30.044,13.073 29.623,12.21 29.288,11.742 C28.855,11.137 28.351,10.793 27.828,10.749 C27.743,10.742 27.695,10.724 27.684,10.696 C27.605,10.479 27.847,9.904 28.023,9.727 C28.308,9.443 28.401,8.929 28.259,8.418 C28.067,7.722 27.501,7.209 26.706,7.011 C25.603,6.737 24.642,6.126 24.418,5.828 C24.732,5.675 25.802,5.609 26.806,5.918 C27.718,6.199 29.693,8.521 29.811,8.981 C29.811,9.392 30.256,11.483 31.146,12.177 C31.509,12.461 31.852,12.454 32.074,12.4 C32.619,12.264 33.09,11.879 33.545,11.505 C34.074,11.07 34.573,10.661 35.148,10.623 C36.246,10.552 38.438,10.809 38.891,10.864 C40.785,13.957 41.897,17.579 41.897,21.464 C41.898,31.177 35.068,39.309 25.964,41.346 L25.964,41.346 Z"></path>                <path d="M20.941,9.585 C20.583,10.122 20.474,10.709 20.627,11.281 C20.829,12.036 21.429,12.567 21.881,12.792 C22.101,12.902 22.347,12.961 22.592,12.961 C23.034,12.961 23.445,12.774 23.688,12.462 C23.899,12.192 23.968,11.857 23.883,11.515 C23.837,11.332 23.995,11.144 24.341,10.786 C24.539,10.581 24.763,10.349 24.936,10.072 C25.493,9.183 25.008,8.07 24.22,7.509 C24.079,7.408 23.907,7.355 23.722,7.355 C22.736,7.354 21.339,8.989 20.941,9.585 L20.941,9.585 Z M23.696,8.241 C24.136,8.554 24.443,9.162 24.172,9.595 C24.049,9.791 23.869,9.979 23.693,10.159 C23.312,10.554 22.837,11.045 23.009,11.731 C23.027,11.802 23.017,11.856 22.978,11.907 C22.858,12.06 22.529,12.109 22.282,11.985 C21.984,11.838 21.611,11.481 21.495,11.047 C21.41,10.728 21.475,10.402 21.688,10.082 C22.201,9.319 23.319,8.255 23.696,8.241 L23.696,8.241 Z"></path>            </g>        </g>    </g></svg>