<?xml version="1.0" encoding="UTF-8"?>
<svg width="122px" height="42px" viewBox="0 0 122 42" version="1.1" xmlns="http://www.w3.org/2000/svg" xmlns:xlink="http://www.w3.org/1999/xlink">
    <!-- Generator: Sketch 43.2 (39069) - http://www.bohemiancoding.com/sketch -->
    <title>LOGO-w</title>
    <desc>Created with Sketch.</desc>
    <defs></defs>
    <g id="Заказы-в-работе" stroke="none" stroke-width="1" fill="none" fill-rule="evenodd">
        <g id="LOGO-w" transform="translate(-4.000000, -4.000000)">
            <rect id="Rectangle-3" fill-opacity="0" fill="#FFCB3C" x="0" y="0" width="130" height="50"></rect>
            <path d="M101,6 L101,7 C100.140439,7.61265022 100.140102,7.80851081 100,10 C100.135709,10.8455099 100.136723,12.9681614 100,17 L100,18 L99,18 L99,6 L99,4 L97,4 L6,4 L4,4 L4,6 L4,40 L4,42 L6,42 L10,42 L12,42 C13.4526814,44.6518429 15.9261635,46 19,46 C21.3707972,46 23.8446171,44.6518429 25,42 L29,42 C30.376826,44.6402437 32.9084202,45.9821041 36,46 C38.4679267,45.9821041 40.9995209,44.6402437 42,42 L100,42 L102,42 L105,42 L107,42 C108.306208,44.6402437 110.837464,45.9821041 114,46 C116.397308,45.9821041 118.92924,44.6263246 120,42 L124,42 L126,42 L126,40 L126,22 C126,9.0794505 108.425473,6.23466658 102,6 L101,6 Z" id="Fill-1" fill="#FFFFFF"></path>
            <path d="M120,42 L126,42 L126,36 L120,36 L120,42 Z M122.039822,22.1131037 C121.490819,22.0378128 121.255243,22 120.823523,22 C117.805187,22 115.254382,23.462528 114,26 L114,22 L108.982047,22.1131037 L108.982047,41.9915848 L115,41.9915848 L115,33 C115,29.4412483 116.039885,26.8467287 119.882905,26.8467287 C120.509759,26.8467287 121.058762,26.8845415 122.039822,27.07394 L122.039822,22.1131037 Z M93,29 C93.3182994,26.5175251 95.0703149,25 97.5790615,25 C100.406792,25 101.760762,26.8271868 102,29 L93,29 Z M97.0772524,21 C91.2408535,21 87,25.4629504 87,31.6155676 C87,37.846363 91.0846766,42 97.272557,42 C101.824426,42 105.442914,39.5768185 106.68865,35.2688647 L101.39703,35.2688647 C100.579694,37.2695445 99.334292,38.1543168 97.311016,38.1543168 C94.3536887,38.1543168 92.6802221,36.3076139 92.6029697,32.8854521 L107,32.8854521 L107,32.3470428 C107,25.3847723 103.147415,21 97.0772524,21 L97.0772524,21 Z M82,22 L77.3442201,35.7491789 L73,22 L67,22 L74.0906452,41.9585063 L80.3248102,41.9585063 L87,22 L82,22 Z M60,41.9915848 L66,41.9915848 L66,22 L60,22 L60,41.9915848 Z M60,19.9300507 L66,19.9300507 L66,15 L60,15 L60,19.9300507 Z M52,41.9585063 L58,41.9585063 L58,15 L52,15 L52,41.9585063 Z M36,29 C36.3182994,26.5175251 38.0703149,25 40.5794037,25 C43.4067919,25 44.7611044,26.8271868 45,29 L36,29 Z M40.0774209,21 C34.2409244,21 30,25.4629504 30,31.6155676 C30,37.846363 34.0844105,42 40.2723944,42 C44.8243399,42 48.4428875,39.5768185 49.6889788,35.2688647 L44.3969366,35.2688647 C43.5799207,37.2695445 42.3341638,38.1543168 40.3111884,38.1543168 C37.3534773,38.1543168 35.680317,36.3076139 35.602729,32.8854521 L50,32.8854521 L50,32.3470428 C50,25.3847723 46.1476849,21 40.0774209,21 L40.0774209,21 Z M10,37.0448523 L10,19.9300507 L14.5483365,19.9300507 C20.0761111,19.9300507 23,23.0731964 23,28.4874515 C23,33.9017066 20.1556474,37.0448523 14.5483365,37.0448523 L10,37.0448523 Z M4,15.0083657 L4,41.9665374 L15.292473,41.9665374 C23.9585622,41.9665374 28.8213995,37.1576214 28.8213995,28.4871169 C28.8213995,19.7791342 23.9585622,15.0083657 15.292473,15.0083657 L4,15.0083657 Z" id="Fill-4" fill="#221F20"></path>
        </g>
    </g>
</svg>