<?xml version="1.0" encoding="UTF-8" standalone="no"?><svg width="77px" height="77px" viewBox="0 0 77 77" version="1.1" xmlns="http://www.w3.org/2000/svg" xmlns:xlink="http://www.w3.org/1999/xlink">        <title>Group</title>    <desc>Created with Sketch.</desc>    <defs></defs>    <g id="Page-1" stroke="none" stroke-width="1" fill="none" fill-rule="evenodd">        <g id="Group">            <circle id="Oval" fill="#FECB3C" cx="38.515" cy="38.59" r="38"></circle>            <path d="M56.022,42.291 C56.896,41.847 58.043,40.967 58.043,39.411 C58.043,37.81 56.876,36.822 56.107,36.344 C56.944,35.579 57.836,34.224 57.337,32.603 C56.37,29.46 47.345,29.869 44.228,30.108 C45.214,28.563 47.254,25.082 47.357,22.56 C47.403,21.426 47.036,18.453 45.644,17.002 C45.126,16.462 44.523,16.189 43.852,16.189 C41.768,16.189 40.915,18.781 40.231,20.863 C39.998,21.573 39.778,22.243 39.542,22.721 C39.021,23.777 37.782,25.344 36.584,26.86 C35.669,28.018 34.804,29.113 34.228,30.007 C33.101,31.755 31.006,34.028 29.878,35.206 L29.878,32.819 C29.878,32.571 29.676,32.369 29.428,32.369 L19.325,32.369 C19.076,32.369 18.875,32.571 18.875,32.819 L18.875,55.078 C18.875,55.326 19.077,55.528 19.325,55.528 L29.428,55.528 C29.677,55.528 29.878,55.326 29.878,55.078 L29.878,53.116 C30.659,53.137 32.53,53.213 34.329,53.469 C35.12,53.582 36.396,53.788 37.868,54.027 C40.892,54.515 44.655,55.124 46.846,55.354 C47.141,55.385 47.457,55.401 47.79,55.401 C50.297,55.401 53.7,54.536 55.36,53.041 C56.062,52.409 56.418,51.713 56.418,50.97 C56.418,49.715 55.72,48.923 55.114,48.471 C56.123,47.988 57.615,47.002 57.615,45.405 C57.615,43.854 56.809,42.85 56.022,42.291 L56.022,42.291 Z M28.979,54.628 L19.776,54.628 L19.776,33.27 L28.979,33.27 L28.979,54.628 L28.979,54.628 Z M53.952,47.97 C53.768,48.028 53.64,48.196 53.635,48.388 C53.63,48.58 53.748,48.756 53.928,48.823 C53.992,48.847 55.517,49.433 55.517,50.969 C55.517,51.446 55.262,51.918 54.757,52.372 C53.101,53.861 49.263,54.706 46.94,54.459 C44.774,54.23 41.024,53.625 38.012,53.138 C36.533,52.899 35.251,52.692 34.456,52.578 C32.56,52.307 30.654,52.235 29.878,52.216 L29.878,36.499 C30.533,35.838 33.503,32.793 34.985,30.494 C35.538,29.636 36.389,28.558 37.29,27.418 C38.517,25.865 39.786,24.26 40.348,23.119 C40.613,22.584 40.843,21.884 41.086,21.143 C41.711,19.243 42.419,17.088 43.852,17.088 C44.275,17.088 44.649,17.263 44.996,17.624 C46.109,18.783 46.503,21.429 46.458,22.521 C46.335,25.519 43.003,30.329 42.969,30.376 C42.868,30.521 42.861,30.71 42.95,30.861 C43.038,31.012 43.206,31.091 43.383,31.082 C48.09,30.615 55.808,30.686 56.477,32.865 C57.051,34.727 55.122,35.981 55.04,36.034 C54.898,36.124 54.818,36.286 54.833,36.454 C54.848,36.621 54.955,36.767 55.111,36.831 C55.131,36.839 57.142,37.683 57.142,39.409 C57.142,41.17 54.849,41.794 54.825,41.8 C54.631,41.851 54.493,42.026 54.49,42.226 C54.486,42.427 54.615,42.607 54.807,42.665 C54.826,42.671 56.714,43.277 56.714,45.401 C56.715,47.1 53.979,47.962 53.952,47.97 L53.952,47.97 Z" id="Shape" fill="#000000"></path>        </g>    </g></svg>